<svg width="48" height="48" viewBox="0 0 48 48" fill="none" xmlns="http://www.w3.org/2000/svg">
<g clip-path="url(#clip0_17_69)">
<rect width="48" height="48" rx="24" fill="url(#paint0_linear_17_69)"/>
<g filter="url(#filter0_f_17_69)">
<path d="M-4.03418 18.7413L1.941 40.6422L19.6571 60.4873L9.69127 66.143L-14 24.397L-4.03418 18.7413Z" fill="#421C8A"/>
</g>
<path d="M17.4667 14.041C18.4053 13.9979 19.3227 13.9763 20.2187 13.9763C21.136 13.9763 22.096 14.0734 23.0987 14.2675C24.1227 14.4616 25.1253 14.8282 26.1067 15.3673C27.1093 15.8849 27.952 16.5642 28.6347 17.4052C29.3387 18.2247 29.904 19.3137 30.3307 20.6723C30.7573 22.031 30.9707 23.6807 30.9707 25.6216C30.9707 27.5624 30.6507 29.3092 30.0107 30.8619C29.392 32.393 28.5387 33.5683 27.4507 34.3878C25.3387 35.9837 22.7893 36.7816 19.8027 36.7816C18.7573 36.7816 17.6587 36.7384 16.5067 36.6522H14.9067V14.041H17.4667ZM17.5627 36.3934C18.0107 36.4365 18.576 36.4581 19.2587 36.4581C19.9413 36.4581 20.4533 36.4473 20.7947 36.4257C21.136 36.4042 21.6053 36.3179 22.2027 36.167C22.8 35.9944 23.3547 35.768 23.8667 35.4877C24.3787 35.2073 24.912 34.7976 25.4667 34.2584C26.0427 33.6977 26.5333 33.04 26.9387 32.2852C27.856 30.5169 28.3147 28.2094 28.3147 25.3628C28.3147 23.3357 28.0693 21.5889 27.5787 20.1224C27.088 18.6344 26.5227 17.5346 25.8827 16.823C25.264 16.1113 24.5067 15.5506 23.6107 15.1409C22.7147 14.7096 22 14.4616 21.4667 14.3969C20.9333 14.3322 20.3147 14.2998 19.6107 14.2998C18.9067 14.2998 18.224 14.3322 17.5627 14.3969V36.3934Z" fill="#748BFF"/>
<path d="M32.1537 10.6021C30.4976 12.6512 30.7024 14.6254 31.63 16.576C32.5576 18.5266 34.7173 20.2268 37.1377 20.4129C39.1955 20.571 41.4467 18.2768 41.4467 18.2768C40.9296 18.5616 38.2435 18.0616 36.9689 17.4262C35.6945 16.7907 37.0195 14.3002 37.0195 14.3002C37.0096 14.3124 36.3872 14.0984 34.7351 12.734C33.0831 11.3696 34.4935 9.37536 36.0456 7.80991C35.0115 8.37945 33.8097 8.55305 32.1537 10.6021Z" fill="#3B4885"/>
<path d="M32.6561 14.2529C30.7615 16.0785 30.7224 18.0632 31.4036 20.115C32.0847 22.1668 34.0192 24.1247 36.3981 24.6126C38.4205 25.0274 40.9359 23.0332 40.9359 23.0332C40.3877 23.251 37.7837 22.4182 36.5971 21.6278C35.4104 20.8376 37.0307 18.5324 37.0307 18.5324C37.0193 18.5432 36.428 18.2528 34.956 16.6919C33.484 15.1309 35.1283 13.3289 36.8605 11.9701C35.7644 12.4056 34.5508 12.4272 32.6561 14.2529Z" fill="#748BFF"/>
</g>
<defs>
<filter id="filter0_f_17_69" x="-33.8" y="-1.05867" width="73.2571" height="87.0017" filterUnits="userSpaceOnUse" color-interpolation-filters="sRGB">
<feFlood flood-opacity="0" result="BackgroundImageFix"/>
<feBlend mode="normal" in="SourceGraphic" in2="BackgroundImageFix" result="shape"/>
<feGaussianBlur stdDeviation="9.9" result="effect1_foregroundBlur_17_69"/>
</filter>
<linearGradient id="paint0_linear_17_69" x1="7" y1="-1.75958e-06" x2="51.5" y2="48" gradientUnits="userSpaceOnUse">
<stop stop-color="#1E1E3A"/>
<stop offset="1" stop-color="#1A141C"/>
</linearGradient>
<clipPath id="clip0_17_69">
<rect width="48" height="48" rx="24" fill="white"/>
</clipPath>
</defs>
</svg>
